G04 #@! TF.GenerationSoftware,KiCad,Pcbnew,5.0.2-bee76a0~70~ubuntu18.04.1*
G04 #@! TF.CreationDate,2019-03-10T21:03:06-07:00*
G04 #@! TF.ProjectId,sense_pcb,73656e73-655f-4706-9362-2e6b69636164,rev?*
G04 #@! TF.SameCoordinates,Original*
G04 #@! TF.FileFunction,Copper,L2,Bot*
G04 #@! TF.FilePolarity,Positive*
%FSLAX46Y46*%
G04 Gerber Fmt 4.6, Leading zero omitted, Abs format (unit mm)*
G04 Created by KiCad (PCBNEW 5.0.2-bee76a0~70~ubuntu18.04.1) date Sun 10 Mar 2019 09:03:06 PM PDT*
%MOMM*%
%LPD*%
G01*
G04 APERTURE LIST*
G04 #@! TA.AperFunction,SMDPad,CuDef*
%ADD10R,1.600000X2.000000*%
G04 #@! TD*
G04 #@! TA.AperFunction,SMDPad,CuDef*
%ADD11R,0.508000X1.143000*%
G04 #@! TD*
G04 #@! TA.AperFunction,BGAPad,CuDef*
%ADD12C,1.500000*%
G04 #@! TD*
G04 #@! TA.AperFunction,ViaPad*
%ADD13C,0.600000*%
G04 #@! TD*
G04 #@! TA.AperFunction,Conductor*
%ADD14C,0.450000*%
G04 #@! TD*
G04 APERTURE END LIST*
D10*
G04 #@! TO.P,C1,1*
G04 #@! TO.N,VCC*
X243713000Y-77756000D03*
G04 #@! TO.P,C1,2*
G04 #@! TO.N,GND*
X243713000Y-81756000D03*
G04 #@! TD*
D11*
G04 #@! TO.P,U5,16*
G04 #@! TO.N,VCC*
X227965000Y-74549000D03*
G04 #@! TO.P,U5,14*
G04 #@! TO.N,Net-(U2-Pad2)*
X230505000Y-74549000D03*
G04 #@! TO.P,U5,13*
G04 #@! TO.N,Net-(U1-Pad2)*
X231775000Y-74549000D03*
G04 #@! TO.P,U5,12*
G04 #@! TO.N,Net-(U4-Pad2)*
X233045000Y-74549000D03*
G04 #@! TO.P,U5,11*
G04 #@! TO.N,Net-(J6-Pad1)*
X234315000Y-74549000D03*
G04 #@! TO.P,U5,10*
G04 #@! TO.N,Net-(J5-Pad1)*
X235585000Y-74549000D03*
G04 #@! TO.P,U5,9*
G04 #@! TO.N,Net-(J4-Pad1)*
X236855000Y-74549000D03*
G04 #@! TO.P,U5,8*
G04 #@! TO.N,GND*
X236855000Y-68199000D03*
G04 #@! TO.P,U5,7*
G04 #@! TO.N,VCC*
X235585000Y-68199000D03*
G04 #@! TO.P,U5,6*
G04 #@! TO.N,Net-(J7-Pad1)*
X234315000Y-68199000D03*
G04 #@! TO.P,U5,5*
G04 #@! TO.N,Net-(U5-Pad5)*
X233045000Y-68199000D03*
G04 #@! TO.P,U5,4*
G04 #@! TO.N,Net-(U5-Pad4)*
X231775000Y-68199000D03*
G04 #@! TO.P,U5,3*
G04 #@! TO.N,Net-(J1-Pad1)*
X230505000Y-68199000D03*
G04 #@! TO.P,U5,2*
G04 #@! TO.N,Net-(U5-Pad2)*
X229235000Y-68199000D03*
G04 #@! TO.P,U5,1*
G04 #@! TO.N,Net-(U5-Pad1)*
X227965000Y-68199000D03*
G04 #@! TO.P,U5,15*
G04 #@! TO.N,Net-(U3-Pad2)*
X229235000Y-74549000D03*
G04 #@! TD*
D12*
G04 #@! TO.P,J1,1*
G04 #@! TO.N,Net-(J1-Pad1)*
X242951000Y-70866000D03*
G04 #@! TD*
G04 #@! TO.P,J2,1*
G04 #@! TO.N,VCC*
X246888000Y-77470000D03*
G04 #@! TD*
G04 #@! TO.P,J3,1*
G04 #@! TO.N,GND*
X247015000Y-81407000D03*
G04 #@! TD*
G04 #@! TO.P,J4,1*
G04 #@! TO.N,Net-(J4-Pad1)*
X245237000Y-73787000D03*
G04 #@! TD*
G04 #@! TO.P,J5,1*
G04 #@! TO.N,Net-(J5-Pad1)*
X241935000Y-73914000D03*
G04 #@! TD*
G04 #@! TO.P,J6,1*
G04 #@! TO.N,Net-(J6-Pad1)*
X239649000Y-71628000D03*
G04 #@! TD*
G04 #@! TO.P,J7,1*
G04 #@! TO.N,Net-(J7-Pad1)*
X239903000Y-68326000D03*
G04 #@! TD*
D13*
G04 #@! TO.N,VCC*
X231521000Y-65786000D03*
X243713000Y-77756000D03*
X227711000Y-72390000D03*
G04 #@! TO.N,GND*
X238125000Y-67437000D03*
X247015000Y-81407000D03*
G04 #@! TO.N,Net-(U1-Pad2)*
X239776000Y-93345000D03*
G04 #@! TO.N,Net-(U2-Pad2)*
X227584000Y-94615000D03*
G04 #@! TO.N,Net-(U3-Pad2)*
X220726000Y-89408000D03*
G04 #@! TO.N,Net-(U4-Pad2)*
X246507000Y-83566000D03*
G04 #@! TO.N,Net-(U5-Pad5)*
X233045000Y-69850000D03*
G04 #@! TO.N,Net-(U5-Pad4)*
X234442000Y-66675000D03*
G04 #@! TO.N,Net-(U5-Pad2)*
X224282000Y-69596000D03*
G04 #@! TO.N,Net-(U5-Pad1)*
X218567000Y-78486000D03*
G04 #@! TD*
D14*
G04 #@! TO.N,VCC*
X231521000Y-65786000D02*
X234569000Y-65659000D01*
X234569000Y-65659000D02*
X235458000Y-66040000D01*
X235458000Y-66040000D02*
X235585000Y-68199000D01*
X246888000Y-77470000D02*
X243713000Y-77756000D01*
X227965000Y-74549000D02*
X227711000Y-72390000D01*
G04 #@! TO.N,GND*
X236855000Y-68199000D02*
X238125000Y-67437000D01*
X247015000Y-81407000D02*
X243713000Y-81756000D01*
G04 #@! TO.N,Net-(U1-Pad2)*
X231775000Y-74549000D02*
X232029000Y-76581000D01*
X232029000Y-76581000D02*
X232664000Y-76962000D01*
X232664000Y-76962000D02*
X233807000Y-77089000D01*
X233807000Y-77089000D02*
X236220000Y-77343000D01*
X236220000Y-77343000D02*
X238252000Y-77470000D01*
X238252000Y-77470000D02*
X240284000Y-78105000D01*
X240284000Y-78105000D02*
X240919000Y-78486000D01*
X240919000Y-78486000D02*
X241046000Y-79883000D01*
X241046000Y-79883000D02*
X241046000Y-81661000D01*
X241046000Y-81661000D02*
X241300000Y-83947000D01*
X241300000Y-83947000D02*
X241935000Y-85090000D01*
X241935000Y-85090000D02*
X241808000Y-86995000D01*
X241808000Y-86995000D02*
X241046000Y-88265000D01*
X241046000Y-88265000D02*
X240411000Y-89408000D01*
X240411000Y-89408000D02*
X239522000Y-91821000D01*
X239522000Y-91821000D02*
X239776000Y-93345000D01*
G04 #@! TO.N,Net-(U2-Pad2)*
X227584000Y-94615000D02*
X226822000Y-93980000D01*
X226822000Y-93980000D02*
X224917000Y-91821000D01*
X224917000Y-91821000D02*
X223520000Y-89916000D01*
X223520000Y-89916000D02*
X223012000Y-87630000D01*
X223012000Y-87630000D02*
X223012000Y-84582000D01*
X223012000Y-84582000D02*
X223266000Y-82423000D01*
X223266000Y-82423000D02*
X224536000Y-80010000D01*
X224536000Y-80010000D02*
X226060000Y-78486000D01*
X226060000Y-78486000D02*
X228219000Y-77851000D01*
X228219000Y-77851000D02*
X229997000Y-77470000D01*
X229997000Y-77470000D02*
X230378000Y-76581000D01*
X230378000Y-76581000D02*
X230505000Y-74549000D01*
G04 #@! TO.N,Net-(U3-Pad2)*
X229235000Y-74549000D02*
X229108000Y-76327000D01*
X229108000Y-76327000D02*
X227965000Y-76708000D01*
X227965000Y-76708000D02*
X225933000Y-77089000D01*
X225933000Y-77089000D02*
X224790000Y-77978000D01*
X224790000Y-77978000D02*
X223012000Y-80264000D01*
X223012000Y-80264000D02*
X221869000Y-83312000D01*
X221869000Y-83312000D02*
X222123000Y-85852000D01*
X222123000Y-85852000D02*
X221234000Y-88138000D01*
X221234000Y-88138000D02*
X220726000Y-89408000D01*
G04 #@! TO.N,Net-(U4-Pad2)*
X233045000Y-74549000D02*
X233045000Y-75946000D01*
X233045000Y-75946000D02*
X234315000Y-76200000D01*
X234315000Y-76200000D02*
X236220000Y-76327000D01*
X236220000Y-76327000D02*
X238125000Y-76454000D01*
X238125000Y-76454000D02*
X240284000Y-77089000D01*
X240284000Y-77089000D02*
X241554000Y-77597000D01*
X241554000Y-77597000D02*
X241935000Y-78359000D01*
X241935000Y-78359000D02*
X242062000Y-79883000D01*
X242062000Y-79883000D02*
X241935000Y-83312000D01*
X241935000Y-83312000D02*
X242443000Y-84074000D01*
X242443000Y-84074000D02*
X243459000Y-84328000D01*
X243459000Y-84328000D02*
X244983000Y-84328000D01*
X244983000Y-84328000D02*
X246126000Y-84074000D01*
X246126000Y-84074000D02*
X246507000Y-83566000D01*
G04 #@! TO.N,Net-(U5-Pad5)*
X233045000Y-69850000D02*
X233045000Y-68199000D01*
G04 #@! TO.N,Net-(U5-Pad4)*
X234442000Y-66675000D02*
X231775000Y-66802000D01*
X231775000Y-66802000D02*
X231775000Y-68199000D01*
G04 #@! TO.N,Net-(U5-Pad2)*
X229235000Y-68199000D02*
X229235000Y-66294000D01*
X229235000Y-66294000D02*
X228346000Y-65786000D01*
X228346000Y-65786000D02*
X226695000Y-66167000D01*
X226695000Y-66167000D02*
X225806000Y-67056000D01*
X225806000Y-67056000D02*
X224663000Y-69469000D01*
X224663000Y-69469000D02*
X224282000Y-69596000D01*
G04 #@! TO.N,Net-(U5-Pad1)*
X227965000Y-68199000D02*
X223647000Y-72517000D01*
X223647000Y-72517000D02*
X222377000Y-74930000D01*
X222377000Y-74930000D02*
X219075000Y-77724000D01*
X219075000Y-77724000D02*
X218567000Y-78486000D01*
G04 #@! TO.N,Net-(J4-Pad1)*
X236855000Y-74549000D02*
X239014000Y-75819000D01*
X239014000Y-75819000D02*
X241935000Y-75946000D01*
X241935000Y-75946000D02*
X243840000Y-75311000D01*
X243840000Y-75311000D02*
X245237000Y-73787000D01*
G04 #@! TO.N,Net-(J5-Pad1)*
X235585000Y-74549000D02*
X235585000Y-73025000D01*
X235585000Y-73025000D02*
X237236000Y-72771000D01*
X237236000Y-72771000D02*
X238760000Y-73406000D01*
X238760000Y-73406000D02*
X240538000Y-73914000D01*
X240538000Y-73914000D02*
X241935000Y-73914000D01*
G04 #@! TO.N,Net-(J7-Pad1)*
X239903000Y-68326000D02*
X238379000Y-69469000D01*
X238379000Y-69469000D02*
X236347000Y-69723000D01*
X236347000Y-69723000D02*
X234315000Y-69723000D01*
X234315000Y-69723000D02*
X234315000Y-68199000D01*
G04 #@! TO.N,Net-(J1-Pad1)*
X242951000Y-70866000D02*
X240157000Y-69977000D01*
X240157000Y-69977000D02*
X239141000Y-70104000D01*
X239141000Y-70104000D02*
X237744000Y-70485000D01*
X237744000Y-70485000D02*
X235458000Y-70612000D01*
X235458000Y-70612000D02*
X231902000Y-70612000D01*
X231902000Y-70612000D02*
X230632000Y-69850000D01*
X230632000Y-69850000D02*
X230505000Y-68199000D01*
G04 #@! TO.N,Net-(J6-Pad1)*
X234315000Y-74549000D02*
X234315000Y-72009000D01*
X234315000Y-72009000D02*
X236728000Y-71247000D01*
X236728000Y-71247000D02*
X239649000Y-71628000D01*
G04 #@! TD*
M02*
