G04 #@! TF.GenerationSoftware,KiCad,Pcbnew,5.0.2-bee76a0~70~ubuntu18.04.1*
G04 #@! TF.CreationDate,2019-03-10T21:03:06-07:00*
G04 #@! TF.ProjectId,sense_pcb,73656e73-655f-4706-9362-2e6b69636164,rev?*
G04 #@! TF.SameCoordinates,Original*
G04 #@! TF.FileFunction,Soldermask,Bot*
G04 #@! TF.FilePolarity,Negative*
%FSLAX46Y46*%
G04 Gerber Fmt 4.6, Leading zero omitted, Abs format (unit mm)*
G04 Created by KiCad (PCBNEW 5.0.2-bee76a0~70~ubuntu18.04.1) date Sun 10 Mar 2019 09:03:06 PM PDT*
%MOMM*%
%LPD*%
G01*
G04 APERTURE LIST*
%ADD10C,0.100000*%
G04 APERTURE END LIST*
D10*
G36*
X244713000Y-82956000D02*
X242713000Y-82956000D01*
X242713000Y-80556000D01*
X244713000Y-80556000D01*
X244713000Y-82956000D01*
X244713000Y-82956000D01*
G37*
G36*
X247154451Y-80466127D02*
X247292105Y-80493508D01*
X247464994Y-80565121D01*
X247620590Y-80669087D01*
X247752913Y-80801410D01*
X247856879Y-80957006D01*
X247928492Y-81129895D01*
X247965000Y-81313433D01*
X247965000Y-81500567D01*
X247928492Y-81684105D01*
X247856879Y-81856994D01*
X247752913Y-82012590D01*
X247620590Y-82144913D01*
X247464994Y-82248879D01*
X247292105Y-82320492D01*
X247154451Y-82347873D01*
X247108568Y-82357000D01*
X246921432Y-82357000D01*
X246875549Y-82347873D01*
X246737895Y-82320492D01*
X246565006Y-82248879D01*
X246409410Y-82144913D01*
X246277087Y-82012590D01*
X246173121Y-81856994D01*
X246101508Y-81684105D01*
X246065000Y-81500567D01*
X246065000Y-81313433D01*
X246101508Y-81129895D01*
X246173121Y-80957006D01*
X246277087Y-80801410D01*
X246409410Y-80669087D01*
X246565006Y-80565121D01*
X246737895Y-80493508D01*
X246875549Y-80466127D01*
X246921432Y-80457000D01*
X247108568Y-80457000D01*
X247154451Y-80466127D01*
X247154451Y-80466127D01*
G37*
G36*
X244713000Y-78956000D02*
X242713000Y-78956000D01*
X242713000Y-76556000D01*
X244713000Y-76556000D01*
X244713000Y-78956000D01*
X244713000Y-78956000D01*
G37*
G36*
X247027451Y-76529127D02*
X247165105Y-76556508D01*
X247337994Y-76628121D01*
X247493590Y-76732087D01*
X247625913Y-76864410D01*
X247729879Y-77020006D01*
X247801492Y-77192895D01*
X247838000Y-77376433D01*
X247838000Y-77563567D01*
X247801492Y-77747105D01*
X247729879Y-77919994D01*
X247625913Y-78075590D01*
X247493590Y-78207913D01*
X247337994Y-78311879D01*
X247165105Y-78383492D01*
X247027451Y-78410873D01*
X246981568Y-78420000D01*
X246794432Y-78420000D01*
X246748549Y-78410873D01*
X246610895Y-78383492D01*
X246438006Y-78311879D01*
X246282410Y-78207913D01*
X246150087Y-78075590D01*
X246046121Y-77919994D01*
X245974508Y-77747105D01*
X245938000Y-77563567D01*
X245938000Y-77376433D01*
X245974508Y-77192895D01*
X246046121Y-77020006D01*
X246150087Y-76864410D01*
X246282410Y-76732087D01*
X246438006Y-76628121D01*
X246610895Y-76556508D01*
X246748549Y-76529127D01*
X246794432Y-76520000D01*
X246981568Y-76520000D01*
X247027451Y-76529127D01*
X247027451Y-76529127D01*
G37*
G36*
X234769000Y-75320500D02*
X233861000Y-75320500D01*
X233861000Y-73777500D01*
X234769000Y-73777500D01*
X234769000Y-75320500D01*
X234769000Y-75320500D01*
G37*
G36*
X229689000Y-75320500D02*
X228781000Y-75320500D01*
X228781000Y-73777500D01*
X229689000Y-73777500D01*
X229689000Y-75320500D01*
X229689000Y-75320500D01*
G37*
G36*
X237309000Y-75320500D02*
X236401000Y-75320500D01*
X236401000Y-73777500D01*
X237309000Y-73777500D01*
X237309000Y-75320500D01*
X237309000Y-75320500D01*
G37*
G36*
X236039000Y-75320500D02*
X235131000Y-75320500D01*
X235131000Y-73777500D01*
X236039000Y-73777500D01*
X236039000Y-75320500D01*
X236039000Y-75320500D01*
G37*
G36*
X233499000Y-75320500D02*
X232591000Y-75320500D01*
X232591000Y-73777500D01*
X233499000Y-73777500D01*
X233499000Y-75320500D01*
X233499000Y-75320500D01*
G37*
G36*
X232229000Y-75320500D02*
X231321000Y-75320500D01*
X231321000Y-73777500D01*
X232229000Y-73777500D01*
X232229000Y-75320500D01*
X232229000Y-75320500D01*
G37*
G36*
X230959000Y-75320500D02*
X230051000Y-75320500D01*
X230051000Y-73777500D01*
X230959000Y-73777500D01*
X230959000Y-75320500D01*
X230959000Y-75320500D01*
G37*
G36*
X228419000Y-75320500D02*
X227511000Y-75320500D01*
X227511000Y-73777500D01*
X228419000Y-73777500D01*
X228419000Y-75320500D01*
X228419000Y-75320500D01*
G37*
G36*
X242074452Y-72973127D02*
X242212105Y-73000508D01*
X242384994Y-73072121D01*
X242540590Y-73176087D01*
X242672913Y-73308410D01*
X242776879Y-73464006D01*
X242848492Y-73636895D01*
X242885000Y-73820433D01*
X242885000Y-74007567D01*
X242848492Y-74191105D01*
X242776879Y-74363994D01*
X242672913Y-74519590D01*
X242540590Y-74651913D01*
X242384994Y-74755879D01*
X242212105Y-74827492D01*
X242074451Y-74854873D01*
X242028568Y-74864000D01*
X241841432Y-74864000D01*
X241795549Y-74854873D01*
X241657895Y-74827492D01*
X241485006Y-74755879D01*
X241329410Y-74651913D01*
X241197087Y-74519590D01*
X241093121Y-74363994D01*
X241021508Y-74191105D01*
X240985000Y-74007567D01*
X240985000Y-73820433D01*
X241021508Y-73636895D01*
X241093121Y-73464006D01*
X241197087Y-73308410D01*
X241329410Y-73176087D01*
X241485006Y-73072121D01*
X241657895Y-73000508D01*
X241795549Y-72973127D01*
X241841432Y-72964000D01*
X242028568Y-72964000D01*
X242074452Y-72973127D01*
X242074452Y-72973127D01*
G37*
G36*
X245376451Y-72846127D02*
X245514105Y-72873508D01*
X245686994Y-72945121D01*
X245842590Y-73049087D01*
X245974913Y-73181410D01*
X246078879Y-73337006D01*
X246150492Y-73509895D01*
X246187000Y-73693433D01*
X246187000Y-73880567D01*
X246150492Y-74064105D01*
X246078879Y-74236994D01*
X245974913Y-74392590D01*
X245842590Y-74524913D01*
X245686994Y-74628879D01*
X245514105Y-74700492D01*
X245376452Y-74727873D01*
X245330568Y-74737000D01*
X245143432Y-74737000D01*
X245097549Y-74727873D01*
X244959895Y-74700492D01*
X244787006Y-74628879D01*
X244631410Y-74524913D01*
X244499087Y-74392590D01*
X244395121Y-74236994D01*
X244323508Y-74064105D01*
X244287000Y-73880567D01*
X244287000Y-73693433D01*
X244323508Y-73509895D01*
X244395121Y-73337006D01*
X244499087Y-73181410D01*
X244631410Y-73049087D01*
X244787006Y-72945121D01*
X244959895Y-72873508D01*
X245097549Y-72846127D01*
X245143432Y-72837000D01*
X245330568Y-72837000D01*
X245376451Y-72846127D01*
X245376451Y-72846127D01*
G37*
G36*
X239788452Y-70687127D02*
X239926105Y-70714508D01*
X240098994Y-70786121D01*
X240254590Y-70890087D01*
X240386913Y-71022410D01*
X240490879Y-71178006D01*
X240562492Y-71350895D01*
X240599000Y-71534433D01*
X240599000Y-71721567D01*
X240562492Y-71905105D01*
X240490879Y-72077994D01*
X240386913Y-72233590D01*
X240254590Y-72365913D01*
X240098994Y-72469879D01*
X239926105Y-72541492D01*
X239788452Y-72568873D01*
X239742568Y-72578000D01*
X239555432Y-72578000D01*
X239509548Y-72568873D01*
X239371895Y-72541492D01*
X239199006Y-72469879D01*
X239043410Y-72365913D01*
X238911087Y-72233590D01*
X238807121Y-72077994D01*
X238735508Y-71905105D01*
X238699000Y-71721567D01*
X238699000Y-71534433D01*
X238735508Y-71350895D01*
X238807121Y-71178006D01*
X238911087Y-71022410D01*
X239043410Y-70890087D01*
X239199006Y-70786121D01*
X239371895Y-70714508D01*
X239509548Y-70687127D01*
X239555432Y-70678000D01*
X239742568Y-70678000D01*
X239788452Y-70687127D01*
X239788452Y-70687127D01*
G37*
G36*
X243090451Y-69925127D02*
X243228105Y-69952508D01*
X243400994Y-70024121D01*
X243556590Y-70128087D01*
X243688913Y-70260410D01*
X243792879Y-70416006D01*
X243864492Y-70588895D01*
X243901000Y-70772433D01*
X243901000Y-70959567D01*
X243864492Y-71143105D01*
X243792879Y-71315994D01*
X243688913Y-71471590D01*
X243556590Y-71603913D01*
X243400994Y-71707879D01*
X243228105Y-71779492D01*
X243090452Y-71806873D01*
X243044568Y-71816000D01*
X242857432Y-71816000D01*
X242811548Y-71806873D01*
X242673895Y-71779492D01*
X242501006Y-71707879D01*
X242345410Y-71603913D01*
X242213087Y-71471590D01*
X242109121Y-71315994D01*
X242037508Y-71143105D01*
X242001000Y-70959567D01*
X242001000Y-70772433D01*
X242037508Y-70588895D01*
X242109121Y-70416006D01*
X242213087Y-70260410D01*
X242345410Y-70128087D01*
X242501006Y-70024121D01*
X242673895Y-69952508D01*
X242811548Y-69925127D01*
X242857432Y-69916000D01*
X243044568Y-69916000D01*
X243090451Y-69925127D01*
X243090451Y-69925127D01*
G37*
G36*
X240042451Y-67385127D02*
X240180105Y-67412508D01*
X240352994Y-67484121D01*
X240508590Y-67588087D01*
X240640913Y-67720410D01*
X240744879Y-67876006D01*
X240816492Y-68048895D01*
X240853000Y-68232433D01*
X240853000Y-68419567D01*
X240816492Y-68603105D01*
X240744879Y-68775994D01*
X240640913Y-68931590D01*
X240508590Y-69063913D01*
X240352994Y-69167879D01*
X240180105Y-69239492D01*
X240042451Y-69266873D01*
X239996568Y-69276000D01*
X239809432Y-69276000D01*
X239763549Y-69266873D01*
X239625895Y-69239492D01*
X239453006Y-69167879D01*
X239297410Y-69063913D01*
X239165087Y-68931590D01*
X239061121Y-68775994D01*
X238989508Y-68603105D01*
X238953000Y-68419567D01*
X238953000Y-68232433D01*
X238989508Y-68048895D01*
X239061121Y-67876006D01*
X239165087Y-67720410D01*
X239297410Y-67588087D01*
X239453006Y-67484121D01*
X239625895Y-67412508D01*
X239763548Y-67385127D01*
X239809432Y-67376000D01*
X239996568Y-67376000D01*
X240042451Y-67385127D01*
X240042451Y-67385127D01*
G37*
G36*
X237309000Y-68970500D02*
X236401000Y-68970500D01*
X236401000Y-67427500D01*
X237309000Y-67427500D01*
X237309000Y-68970500D01*
X237309000Y-68970500D01*
G37*
G36*
X228419000Y-68970500D02*
X227511000Y-68970500D01*
X227511000Y-67427500D01*
X228419000Y-67427500D01*
X228419000Y-68970500D01*
X228419000Y-68970500D01*
G37*
G36*
X229689000Y-68970500D02*
X228781000Y-68970500D01*
X228781000Y-67427500D01*
X229689000Y-67427500D01*
X229689000Y-68970500D01*
X229689000Y-68970500D01*
G37*
G36*
X230959000Y-68970500D02*
X230051000Y-68970500D01*
X230051000Y-67427500D01*
X230959000Y-67427500D01*
X230959000Y-68970500D01*
X230959000Y-68970500D01*
G37*
G36*
X232229000Y-68970500D02*
X231321000Y-68970500D01*
X231321000Y-67427500D01*
X232229000Y-67427500D01*
X232229000Y-68970500D01*
X232229000Y-68970500D01*
G37*
G36*
X233499000Y-68970500D02*
X232591000Y-68970500D01*
X232591000Y-67427500D01*
X233499000Y-67427500D01*
X233499000Y-68970500D01*
X233499000Y-68970500D01*
G37*
G36*
X234769000Y-68970500D02*
X233861000Y-68970500D01*
X233861000Y-67427500D01*
X234769000Y-67427500D01*
X234769000Y-68970500D01*
X234769000Y-68970500D01*
G37*
G36*
X236039000Y-68970500D02*
X235131000Y-68970500D01*
X235131000Y-67427500D01*
X236039000Y-67427500D01*
X236039000Y-68970500D01*
X236039000Y-68970500D01*
G37*
M02*
