G04 #@! TF.GenerationSoftware,KiCad,Pcbnew,5.0.2-bee76a0~70~ubuntu18.04.1*
G04 #@! TF.CreationDate,2019-03-10T21:03:06-07:00*
G04 #@! TF.ProjectId,sense_pcb,73656e73-655f-4706-9362-2e6b69636164,rev?*
G04 #@! TF.SameCoordinates,Original*
G04 #@! TF.FileFunction,Soldermask,Top*
G04 #@! TF.FilePolarity,Negative*
%FSLAX46Y46*%
G04 Gerber Fmt 4.6, Leading zero omitted, Abs format (unit mm)*
G04 Created by KiCad (PCBNEW 5.0.2-bee76a0~70~ubuntu18.04.1) date Sun 10 Mar 2019 09:03:06 PM PDT*
%MOMM*%
%LPD*%
G01*
G04 APERTURE LIST*
%ADD10C,0.100000*%
G04 APERTURE END LIST*
D10*
G36*
X232780000Y-98383000D02*
X232040000Y-98383000D01*
X232040000Y-96943000D01*
X232780000Y-96943000D01*
X232780000Y-98383000D01*
X232780000Y-98383000D01*
G37*
G36*
X233730000Y-96283000D02*
X232990000Y-96283000D01*
X232990000Y-94843000D01*
X233730000Y-94843000D01*
X233730000Y-96283000D01*
X233730000Y-96283000D01*
G37*
G36*
X231830000Y-96283000D02*
X231090000Y-96283000D01*
X231090000Y-94843000D01*
X231830000Y-94843000D01*
X231830000Y-96283000D01*
X231830000Y-96283000D01*
G37*
G36*
X221623747Y-92716513D02*
X220605513Y-93734747D01*
X220082253Y-93211487D01*
X221100487Y-92193253D01*
X221623747Y-92716513D01*
X221623747Y-92716513D01*
G37*
G36*
X244737747Y-93084487D02*
X244214487Y-93607747D01*
X243196253Y-92589513D01*
X243719513Y-92066253D01*
X244737747Y-93084487D01*
X244737747Y-93084487D01*
G37*
G36*
X223780423Y-91903340D02*
X222762189Y-92921574D01*
X222238929Y-92398314D01*
X223257163Y-91380080D01*
X223780423Y-91903340D01*
X223780423Y-91903340D01*
G37*
G36*
X242581071Y-92271314D02*
X242057811Y-92794574D01*
X241039577Y-91776340D01*
X241562837Y-91253080D01*
X242581071Y-92271314D01*
X242581071Y-92271314D01*
G37*
G36*
X222436920Y-90559837D02*
X221418686Y-91578071D01*
X220895426Y-91054811D01*
X221913660Y-90036577D01*
X222436920Y-90559837D01*
X222436920Y-90559837D01*
G37*
G36*
X243924574Y-90927811D02*
X243401314Y-91451071D01*
X242383080Y-90432837D01*
X242906340Y-89909577D01*
X243924574Y-90927811D01*
X243924574Y-90927811D01*
G37*
G36*
X247446999Y-82600000D02*
X246006999Y-82600000D01*
X246006999Y-81860000D01*
X247446999Y-81860000D01*
X247446999Y-82600000D01*
X247446999Y-82600000D01*
G37*
G36*
X218779000Y-82539000D02*
X217339000Y-82539000D01*
X217339000Y-81799000D01*
X218779000Y-81799000D01*
X218779000Y-82539000D01*
X218779000Y-82539000D01*
G37*
G36*
X249547000Y-81650000D02*
X248107000Y-81650000D01*
X248107000Y-80910000D01*
X249547000Y-80910000D01*
X249547000Y-81650000D01*
X249547000Y-81650000D01*
G37*
G36*
X216678999Y-81589000D02*
X215238999Y-81589000D01*
X215238999Y-80849000D01*
X216678999Y-80849000D01*
X216678999Y-81589000D01*
X216678999Y-81589000D01*
G37*
G36*
X247446999Y-80700000D02*
X246006999Y-80700000D01*
X246006999Y-79960000D01*
X247446999Y-79960000D01*
X247446999Y-80700000D01*
X247446999Y-80700000D01*
G37*
G36*
X218779000Y-80639000D02*
X217339000Y-80639000D01*
X217339000Y-79899000D01*
X218779000Y-79899000D01*
X218779000Y-80639000D01*
X218779000Y-80639000D01*
G37*
G36*
X244032036Y-71651727D02*
X243013802Y-72669961D01*
X242490542Y-72146701D01*
X243508776Y-71128467D01*
X244032036Y-71651727D01*
X244032036Y-71651727D01*
G37*
G36*
X222309920Y-72127163D02*
X221786660Y-72650423D01*
X220768426Y-71632189D01*
X221291686Y-71108929D01*
X222309920Y-72127163D01*
X222309920Y-72127163D01*
G37*
G36*
X242688533Y-70308224D02*
X241670299Y-71326458D01*
X241147039Y-70803198D01*
X242165273Y-69784964D01*
X242688533Y-70308224D01*
X242688533Y-70308224D01*
G37*
G36*
X223653423Y-70783660D02*
X223130163Y-71306920D01*
X222111929Y-70288686D01*
X222635189Y-69765426D01*
X223653423Y-70783660D01*
X223653423Y-70783660D01*
G37*
G36*
X244845209Y-69495051D02*
X243826975Y-70513285D01*
X243303715Y-69990025D01*
X244321949Y-68971791D01*
X244845209Y-69495051D01*
X244845209Y-69495051D01*
G37*
G36*
X221496747Y-69970487D02*
X220973487Y-70493747D01*
X219955253Y-69475513D01*
X220478513Y-68952253D01*
X221496747Y-69970487D01*
X221496747Y-69970487D01*
G37*
G36*
X231830000Y-67717001D02*
X231090000Y-67717001D01*
X231090000Y-66277001D01*
X231830000Y-66277001D01*
X231830000Y-67717001D01*
X231830000Y-67717001D01*
G37*
G36*
X233730000Y-67717001D02*
X232990000Y-67717001D01*
X232990000Y-66277001D01*
X233730000Y-66277001D01*
X233730000Y-67717001D01*
X233730000Y-67717001D01*
G37*
G36*
X232780000Y-65617000D02*
X232040000Y-65617000D01*
X232040000Y-64177000D01*
X232780000Y-64177000D01*
X232780000Y-65617000D01*
X232780000Y-65617000D01*
G37*
M02*
