G04 #@! TF.GenerationSoftware,KiCad,Pcbnew,5.0.2-bee76a0~70~ubuntu18.04.1*
G04 #@! TF.CreationDate,2019-03-10T21:03:06-07:00*
G04 #@! TF.ProjectId,sense_pcb,73656e73-655f-4706-9362-2e6b69636164,rev?*
G04 #@! TF.SameCoordinates,Original*
G04 #@! TF.FileFunction,Copper,L1,Top*
G04 #@! TF.FilePolarity,Positive*
%FSLAX46Y46*%
G04 Gerber Fmt 4.6, Leading zero omitted, Abs format (unit mm)*
G04 Created by KiCad (PCBNEW 5.0.2-bee76a0~70~ubuntu18.04.1) date Sun 10 Mar 2019 09:03:06 PM PDT*
%MOMM*%
%LPD*%
G01*
G04 APERTURE LIST*
G04 #@! TA.AperFunction,SMDPad,CuDef*
%ADD10C,0.600000*%
G04 #@! TD*
G04 #@! TA.AperFunction,Conductor*
%ADD11C,0.100000*%
G04 #@! TD*
G04 #@! TA.AperFunction,SMDPad,CuDef*
%ADD12R,0.600000X1.300000*%
G04 #@! TD*
G04 #@! TA.AperFunction,SMDPad,CuDef*
%ADD13R,1.300000X0.600000*%
G04 #@! TD*
G04 #@! TA.AperFunction,ViaPad*
%ADD14C,0.600000*%
G04 #@! TD*
G04 #@! TA.AperFunction,Conductor*
%ADD15C,0.450000*%
G04 #@! TD*
G04 APERTURE END LIST*
D10*
G04 #@! TO.P,U1,3*
G04 #@! TO.N,GND*
X243967000Y-92837000D03*
D11*
G04 #@! TD*
G04 #@! TO.N,GND*
G04 #@! TO.C,U1*
G36*
X243295249Y-92589513D02*
X243719513Y-92165249D01*
X244638751Y-93084487D01*
X244214487Y-93508751D01*
X243295249Y-92589513D01*
X243295249Y-92589513D01*
G37*
D10*
G04 #@! TO.P,U1,2*
G04 #@! TO.N,Net-(U1-Pad2)*
X241810324Y-92023827D03*
D11*
G04 #@! TD*
G04 #@! TO.N,Net-(U1-Pad2)*
G04 #@! TO.C,U1*
G36*
X241138573Y-91776340D02*
X241562837Y-91352076D01*
X242482075Y-92271314D01*
X242057811Y-92695578D01*
X241138573Y-91776340D01*
X241138573Y-91776340D01*
G37*
D10*
G04 #@! TO.P,U1,1*
G04 #@! TO.N,VCC*
X243153827Y-90680324D03*
D11*
G04 #@! TD*
G04 #@! TO.N,VCC*
G04 #@! TO.C,U1*
G36*
X242482076Y-90432837D02*
X242906340Y-90008573D01*
X243825578Y-90927811D01*
X243401314Y-91352075D01*
X242482076Y-90432837D01*
X242482076Y-90432837D01*
G37*
D12*
G04 #@! TO.P,U2,3*
G04 #@! TO.N,GND*
X232410000Y-97663000D03*
G04 #@! TO.P,U2,2*
G04 #@! TO.N,Net-(U2-Pad2)*
X231460000Y-95563000D03*
G04 #@! TO.P,U2,1*
G04 #@! TO.N,VCC*
X233360000Y-95563000D03*
G04 #@! TD*
D10*
G04 #@! TO.P,U3,3*
G04 #@! TO.N,GND*
X220853000Y-92964000D03*
D11*
G04 #@! TD*
G04 #@! TO.N,GND*
G04 #@! TO.C,U3*
G36*
X221100487Y-92292249D02*
X221524751Y-92716513D01*
X220605513Y-93635751D01*
X220181249Y-93211487D01*
X221100487Y-92292249D01*
X221100487Y-92292249D01*
G37*
D10*
G04 #@! TO.P,U3,2*
G04 #@! TO.N,Net-(U3-Pad2)*
X221666173Y-90807324D03*
D11*
G04 #@! TD*
G04 #@! TO.N,Net-(U3-Pad2)*
G04 #@! TO.C,U3*
G36*
X221913660Y-90135573D02*
X222337924Y-90559837D01*
X221418686Y-91479075D01*
X220994422Y-91054811D01*
X221913660Y-90135573D01*
X221913660Y-90135573D01*
G37*
D10*
G04 #@! TO.P,U3,1*
G04 #@! TO.N,VCC*
X223009676Y-92150827D03*
D11*
G04 #@! TD*
G04 #@! TO.N,VCC*
G04 #@! TO.C,U3*
G36*
X223257163Y-91479076D02*
X223681427Y-91903340D01*
X222762189Y-92822578D01*
X222337925Y-92398314D01*
X223257163Y-91479076D01*
X223257163Y-91479076D01*
G37*
D13*
G04 #@! TO.P,U4,3*
G04 #@! TO.N,GND*
X248827000Y-81280000D03*
G04 #@! TO.P,U4,2*
G04 #@! TO.N,Net-(U4-Pad2)*
X246726999Y-82230000D03*
G04 #@! TO.P,U4,1*
G04 #@! TO.N,VCC*
X246726999Y-80330000D03*
G04 #@! TD*
D12*
G04 #@! TO.P,U6,3*
G04 #@! TO.N,GND*
X232410000Y-64897000D03*
G04 #@! TO.P,U6,2*
G04 #@! TO.N,Net-(U5-Pad4)*
X233360000Y-66997001D03*
G04 #@! TO.P,U6,1*
G04 #@! TO.N,VCC*
X231460000Y-66997001D03*
G04 #@! TD*
D10*
G04 #@! TO.P,U7,3*
G04 #@! TO.N,GND*
X220726000Y-69723000D03*
D11*
G04 #@! TD*
G04 #@! TO.N,GND*
G04 #@! TO.C,U7*
G36*
X221397751Y-69970487D02*
X220973487Y-70394751D01*
X220054249Y-69475513D01*
X220478513Y-69051249D01*
X221397751Y-69970487D01*
X221397751Y-69970487D01*
G37*
D10*
G04 #@! TO.P,U7,2*
G04 #@! TO.N,Net-(U5-Pad2)*
X222882676Y-70536173D03*
D11*
G04 #@! TD*
G04 #@! TO.N,Net-(U5-Pad2)*
G04 #@! TO.C,U7*
G36*
X223554427Y-70783660D02*
X223130163Y-71207924D01*
X222210925Y-70288686D01*
X222635189Y-69864422D01*
X223554427Y-70783660D01*
X223554427Y-70783660D01*
G37*
D10*
G04 #@! TO.P,U7,1*
G04 #@! TO.N,VCC*
X221539173Y-71879676D03*
D11*
G04 #@! TD*
G04 #@! TO.N,VCC*
G04 #@! TO.C,U7*
G36*
X222210924Y-72127163D02*
X221786660Y-72551427D01*
X220867422Y-71632189D01*
X221291686Y-71207925D01*
X222210924Y-72127163D01*
X222210924Y-72127163D01*
G37*
D10*
G04 #@! TO.P,U8,3*
G04 #@! TO.N,GND*
X244074462Y-69742538D03*
D11*
G04 #@! TD*
G04 #@! TO.N,GND*
G04 #@! TO.C,U8*
G36*
X243826975Y-70414289D02*
X243402711Y-69990025D01*
X244321949Y-69070787D01*
X244746213Y-69495051D01*
X243826975Y-70414289D01*
X243826975Y-70414289D01*
G37*
D10*
G04 #@! TO.P,U8,2*
G04 #@! TO.N,Net-(U5-Pad5)*
X243261289Y-71899214D03*
D11*
G04 #@! TD*
G04 #@! TO.N,Net-(U5-Pad5)*
G04 #@! TO.C,U8*
G36*
X243013802Y-72570965D02*
X242589538Y-72146701D01*
X243508776Y-71227463D01*
X243933040Y-71651727D01*
X243013802Y-72570965D01*
X243013802Y-72570965D01*
G37*
D10*
G04 #@! TO.P,U8,1*
G04 #@! TO.N,VCC*
X241917786Y-70555711D03*
D11*
G04 #@! TD*
G04 #@! TO.N,VCC*
G04 #@! TO.C,U8*
G36*
X241670299Y-71227462D02*
X241246035Y-70803198D01*
X242165273Y-69883960D01*
X242589537Y-70308224D01*
X241670299Y-71227462D01*
X241670299Y-71227462D01*
G37*
D13*
G04 #@! TO.P,U9,3*
G04 #@! TO.N,GND*
X215958999Y-81219000D03*
G04 #@! TO.P,U9,2*
G04 #@! TO.N,Net-(U5-Pad1)*
X218059000Y-80269000D03*
G04 #@! TO.P,U9,1*
G04 #@! TO.N,VCC*
X218059000Y-82169000D03*
G04 #@! TD*
D14*
G04 #@! TO.N,VCC*
X231521000Y-65786000D03*
X243713000Y-77756000D03*
X227711000Y-72390000D03*
G04 #@! TO.N,GND*
X238125000Y-67437000D03*
X247015000Y-81407000D03*
G04 #@! TO.N,Net-(U1-Pad2)*
X239776000Y-93345000D03*
G04 #@! TO.N,Net-(U2-Pad2)*
X227584000Y-94615000D03*
G04 #@! TO.N,Net-(U3-Pad2)*
X220726000Y-89408000D03*
G04 #@! TO.N,Net-(U4-Pad2)*
X246507000Y-83566000D03*
G04 #@! TO.N,Net-(U5-Pad5)*
X233045000Y-69850000D03*
G04 #@! TO.N,Net-(U5-Pad4)*
X234442000Y-66675000D03*
G04 #@! TO.N,Net-(U5-Pad2)*
X224282000Y-69596000D03*
G04 #@! TO.N,Net-(U5-Pad1)*
X218567000Y-78486000D03*
G04 #@! TD*
D15*
G04 #@! TO.N,VCC*
X233360000Y-95563000D02*
X242062000Y-89535000D01*
X242062000Y-89535000D02*
X243153827Y-90680324D01*
X223009676Y-92150827D02*
X233299000Y-93853000D01*
X233299000Y-93853000D02*
X233360000Y-95563000D01*
X218059000Y-82169000D02*
X224282000Y-90805000D01*
X224282000Y-90805000D02*
X223009676Y-92150827D01*
X221539173Y-71879676D02*
X219837000Y-82169000D01*
X219837000Y-82169000D02*
X218059000Y-82169000D01*
X243153827Y-90680324D02*
X244983000Y-80391000D01*
X244983000Y-80391000D02*
X246726999Y-80330000D01*
X231460000Y-66997001D02*
X222885000Y-73152000D01*
X222885000Y-73152000D02*
X221539173Y-71879676D01*
X241917786Y-70555711D02*
X231521000Y-68834000D01*
X231521000Y-68834000D02*
X231460000Y-66997001D01*
X231460000Y-66997001D02*
X231521000Y-65786000D01*
X244983000Y-80391000D02*
X243713000Y-77756000D01*
X227711000Y-72390000D02*
X231521000Y-68834000D01*
G04 #@! TO.N,GND*
X232410000Y-97663000D02*
X236601000Y-97028000D01*
X236601000Y-97028000D02*
X240538000Y-95377000D01*
X240538000Y-95377000D02*
X243967000Y-92837000D01*
X232410000Y-97663000D02*
X228219000Y-97028000D01*
X228219000Y-97028000D02*
X224155000Y-95377000D01*
X224155000Y-95377000D02*
X220853000Y-92964000D01*
X220853000Y-92964000D02*
X218186000Y-89535000D01*
X218186000Y-89535000D02*
X216535000Y-85471000D01*
X216535000Y-85471000D02*
X215958999Y-81219000D01*
X215958999Y-81219000D02*
X216535000Y-77089000D01*
X216535000Y-77089000D02*
X218186000Y-73152000D01*
X218186000Y-73152000D02*
X220726000Y-69723000D01*
X220726000Y-69723000D02*
X224155000Y-67183000D01*
X224155000Y-67183000D02*
X228219000Y-65532000D01*
X228219000Y-65532000D02*
X232410000Y-64897000D01*
X232410000Y-64897000D02*
X236601000Y-65405000D01*
X240792000Y-67056000D02*
X244074462Y-69742538D01*
X243967000Y-92837000D02*
X246634000Y-89535000D01*
X246634000Y-89535000D02*
X248285000Y-85471000D01*
X248285000Y-85471000D02*
X248827000Y-81280000D01*
X238506000Y-66155455D02*
X238125000Y-67437000D01*
X238506000Y-66155455D02*
X240792000Y-67056000D01*
X236601000Y-65405000D02*
X238506000Y-66155455D01*
X248827000Y-81280000D02*
X247015000Y-81407000D01*
G04 #@! TO.N,Net-(U1-Pad2)*
X241810324Y-92023827D02*
X239776000Y-93345000D01*
G04 #@! TO.N,Net-(U2-Pad2)*
X231460000Y-95563000D02*
X229362000Y-95123000D01*
X229362000Y-95123000D02*
X227584000Y-94615000D01*
G04 #@! TO.N,Net-(U3-Pad2)*
X221666173Y-90807324D02*
X220726000Y-89408000D01*
G04 #@! TO.N,Net-(U4-Pad2)*
X246726999Y-82230000D02*
X246507000Y-83566000D01*
G04 #@! TO.N,Net-(U5-Pad5)*
X243261289Y-71899214D02*
X241300000Y-72390000D01*
X241300000Y-72390000D02*
X235458000Y-71120000D01*
X235458000Y-71120000D02*
X233045000Y-69850000D01*
G04 #@! TO.N,Net-(U5-Pad4)*
X233360000Y-66997001D02*
X234442000Y-66675000D01*
G04 #@! TO.N,Net-(U5-Pad2)*
X224282000Y-69596000D02*
X222882676Y-70536173D01*
G04 #@! TO.N,Net-(U5-Pad1)*
X218567000Y-78486000D02*
X218059000Y-80269000D01*
G04 #@! TD*
M02*
